<svg xmlns="http://www.w3.org/2000/svg" version="1.1" xmlns:xlink="http://www.w3.org/1999/xlink" xmlns:svgjs="http://svgjs.com/svgjs" width="37.9" height="33.5"><svg version="1.1" id="SvgjsSvg1001" xmlns="http://www.w3.org/2000/svg" xmlns:xlink="http://www.w3.org/1999/xlink" x="0px" y="0px" viewBox="0 0 37.9 33.5" style="enable-background:new 0 0 37.9 33.5;" xml:space="preserve">
<style type="text/css">
	.st0{fill:#112E51;}
	.st1{fill:#FFFFFF;}
	.st2{fill:#FDB736;}
</style>
<path class="st0" d="M17.4,21.6h15.5l-2.6,11.5H11.4C6,33.1,3,32.2,1.3,30c-1.3-1.6-1.6-3.8-1-6.4L3.8,8.1c0.6-2.9,2.6-5.4,5.3-6.6
	c2.8-1.1,5.8-1.6,8.8-1.5h20l-3.4,14.6H19L17.4,21.6z"></path>
<path class="st1" d="M17.8,1.7C15,1.6,12.3,2,9.7,3C7.4,4,5.8,6.1,5.4,8.5L1.9,24c-0.5,1.7-0.3,3.5,0.7,4.9c1.4,1.7,4,2.4,8.7,2.4
	h17.6l1.8-8H15.2l3.1-13.6h3.5l-0.7,3.1h12l2.6-11.2C35.7,1.6,17.8,1.7,17.8,1.7z"></path>
<path id="SvgjsPath1000" class="st2" d="M34.2,2.9l-2,8.8h-9.6l0.7-3.1h-5.9l-3.7,15.9h15.5l-1.3,5.7H11.3c-6.2,0-9.4-1.2-8.3-5.9
	L6.5,8.8c1.1-4.6,5.1-5.9,11.3-5.9H34.2z"></path>
</svg><style>@media (prefers-color-scheme: light) { :root { filter: none; } }
@media (prefers-color-scheme: dark) { :root { filter: none; } }
</style></svg>