<?xml version="1.0" encoding="utf-8"?>
<!-- Generator: Adobe Illustrator 27.4.0, SVG Export Plug-In . SVG Version: 6.00 Build 0)  -->
<svg version="1.1" id="Layer_1" xmlns="http://www.w3.org/2000/svg" xmlns:xlink="http://www.w3.org/1999/xlink" x="0px" y="0px"
	 viewBox="0 0 85 74.2" style="enable-background:new 0 0 85 74.2;" xml:space="preserve">
<style type="text/css">
	.st0{fill:#102F51;}
	.st1{fill:#FFFFFF;}
	.st2{fill:#FDB734;}
</style>
<path class="st0" d="M77.5,32.8L85,0H40c-8.5,0-14.9,1.1-19.7,3.4C14.2,6.3,10,11.5,8.5,18.3L0.7,53c-1.4,5.9-0.6,10.6,2.4,14.3
	c3.8,4.9,10.6,6.9,22.6,6.9h42.5l5.9-25.7H39.2l3.7-15.8L77.5,32.8L77.5,32.8z"/>
<path class="st1" d="M34.3,52.3h34.9l-4.1,18.1H25.6C14.9,70.4,9,68.7,6,64.9c-2.2-2.8-2.7-6.3-1.7-11l8-34.7
	c1.3-5.7,4.6-9.8,9.7-12.3c4.3-2,10.1-3,18.1-3h40.2l-5.8,25h-27l1.7-7.1h-7.9L34.3,52.3z"/>
<path class="st2" d="M77.3,6.6l-4.5,19.8H51.2l1.7-7.1H39.6L31.4,55h34.9l-3,12.8H25.9c-14,0-21.1-2.7-18.7-13.3l8-34.7
	C17.5,9.5,26.5,6.5,40.4,6.5L77.3,6.6L77.3,6.6z"/>
</svg>
