<?xml version="1.0" encoding="UTF-8"?>
<svg id="Layer_1" data-name="Layer 1" xmlns="http://www.w3.org/2000/svg" viewBox="0 0 603.95 73.25">
  <defs>
    <style>
      .cls-1 {
        fill: #112e51;
      }

      .cls-1, .cls-2, .cls-3 {
        stroke-width: 0px;
      }

      .cls-2 {
        fill: #fff;
      }

      .cls-3 {
        fill: #fdb731;
      }
    </style>
  </defs>
  <path class="cls-2" d="m104.41,14.75c.06,2.19.15,2.63.68,3.37.53.77,1.36,1.15,2.51,1.21.41,0,.53.12.53.44,0,.29-.09.38-.44.38q-.09,0-1.45-.06-1.95-.15-2.4-.15c-.74,0-.91,0-2.69.12l-1.98.12c-.33.03-.59.06-.77.06-.24,0-.35-.12-.35-.35,0-.41.15-.53.71-.56,1.8-.27,2.45-1.24,2.34-3.49V3.31c0-1.24-.21-1.45-1.45-1.45-2.01,0-3.34.21-4.05.59-.74.41-.92.71-1.36,2.51-.21.83-.33,1-.62,1-.27,0-.44-.18-.44-.44q0-.09.09-.74.06-.38.21-1.66c.06-.41.12-.86.15-1.27.06-.33.09-.62.12-.89.03-.44.15-.56.56-.56.06,0,.33,0,.53.03.27.03.89.03,1.6.06l2.96.03q2.84.03,3.55.03c1.65,0,5.56-.09,7.12-.18l1.03-.03q.74,0,.86,1.68c.06.68.12,1.06.12,1.18.06.38.12,1.06.12,1.24,0,.3-.12.44-.38.44s-.35-.12-.47-.53c-.15-.77-.71-1.6-1.24-2.01-.53-.35-1.15-.5-2.45-.5-2.84,0-3.22.24-3.22,2.01v10.88Z"/>
  <path class="cls-2" d="m122.41,10.29c-1.3-.03-1.54.24-1.51,1.66v3.61c-.06,2.6.8,3.78,2.81,3.84.38,0,.53.09.53.38,0,.33-.18.44-.74.44-.15,0-.47-.03-1.04-.09-.97-.12-2.42-.21-3.04-.21-.56,0-1.27.06-3.43.27h-.18c-.27,0-.44-.18-.44-.5,0-.21.09-.3.35-.33.83-.12,1.54-.8,1.74-1.66.09-.33.09-.44.12-2.25V3.99c.06-1.86-.59-2.6-2.69-2.93-.33-.06-.41-.12-.41-.35,0-.33.15-.47.47-.47.15,0,.56.03.95.09.65.12,1.89.18,2.9.18q.27,0,2.13-.18c.5-.06,1.42-.12,1.63-.12.3,0,.47.15.47.39s-.12.35-.41.41c-1.21.15-1.74.83-1.72,2.16v3.69c-.06,1.86.06,1.98,1.6,1.98h6.74c1.15,0,1.3-.33,1.27-2.31v-2.54c.09-1.86-.62-2.63-2.69-2.9-.33-.06-.41-.15-.41-.38,0-.33.15-.47.47-.47.15,0,.56.03.95.09.74.12,1.86.18,3.04.18.15,0,.92-.06,1.98-.18.56-.06,1.33-.12,1.6-.12.35,0,.5.12.5.42,0,.21-.12.32-.41.38-1.21.15-1.74.83-1.71,2.16v12.38c-.09,2.57.8,3.81,2.78,3.84.41,0,.56.09.56.38,0,.33-.18.44-.74.44-.15,0-.47-.03-1.03-.09-.95-.12-2.42-.21-3.04-.21-.56,0-1.27.06-3.43.27h-.18c-.27,0-.44-.18-.44-.5,0-.21.09-.3.35-.33.83-.12,1.54-.8,1.74-1.66.09-.33.09-.44.12-2.25v-3.16c0-1.83-.12-2.04-1.27-2.01h-6.83Z"/>
  <path class="cls-2" d="m146.12,6.83c0,1.83.15,2.07,1.12,2.07l1.1-.03h1.21c1.15-.03,1.8-.59,2.57-2.28.09-.24.21-.3.41-.3s.33.12.33.35c0,.12-.03.38-.06.68-.03.24-.03.44-.03.68q0,.3.15,2.13c.06.77.09,1.86.09,2.69,0,.27-.09.35-.3.35-.27,0-.38-.15-.44-.53-.53-2.25-.98-2.48-4.49-2.42-.98,0-1.3.09-1.45.5-.12.41-.15.68-.21,2.84v1.3c0,1.12.15,2.45.33,2.93.33.89.68,1.12,1.6,1.12,2.72,0,4.67-.53,6.15-1.71.65-.5,1.27-1.24,1.51-1.86.06-.12.12-.18.18-.18.24,0,.38.18.38.38,0,.97-.47,2.45-1.03,3.19-.89,1.21-1.95,1.66-3.84,1.66-.86,0-1.03,0-3.73-.27-.62-.06-1.39-.09-2.36-.09-1.03,0-1.12,0-3.31.12l-.86.03c-.27,0-.38-.09-.38-.33,0-.18.09-.3.33-.38,1.3-.35,1.74-1.33,1.74-3.99V4.05c0-2.19-.5-2.72-2.72-3.02-.3-.03-.38-.12-.38-.41,0-.21.15-.33.44-.33l.47.03.71.03c2.45.06,3.87.09,7.39.09,1.36,0,4.64-.06,5.35-.12h.24c.3,0,.38.12.38.47.03.3.06.71.09,1.18.12,1.3.12,1.45.12,1.8,0,.68-.24,1.12-.56,1.12-.21,0-.27-.12-.29-.65,0-1.89-1.42-2.75-4.52-2.69h-1.36c-1.86,0-2.04.21-2.04,2.16v3.1Z"/>
  <path class="cls-2" d="m170.99,3.55c.03-1.71-.38-2.1-2.54-2.54-.41-.06-.56-.15-.56-.41s.12-.38.44-.38c.12,0,.42.03.65.06,1.48.15,1.92.18,2.84.18s1.95-.06,3.1-.15c.5-.03.83-.06,1.01-.06.59,0,.74.09.74.44,0,.3-.09.33-.65.47-.74.12-.89.21-1.18.62-.15.24-.3.8-.36,1.57-.09,1.33-.18,2.51-.27,3.69.03,7.06.06,7.21.68,8.6.95,2.07,3.13,3.31,5.82,3.31,1.33,0,2.84-.47,3.93-1.27,1.6-1.12,2.28-2.96,2.51-6.68.06-1.24.09-2.36.09-4.17,0-2.25-.06-3.28-.24-3.96-.27-1.09-1.36-1.83-2.72-1.86-.41,0-.56-.12-.56-.41,0-.24.09-.33.24-.35.09,0,.21,0,.35.03.24.03,2.33.15,2.9.15.44,0,1.57-.09,2.48-.18.15-.03.33-.03.44-.03.27,0,.41.12.41.38s-.03.3-.92.44c-.8.12-1.12.83-1.12,2.31l.03,1.42c0,1.21-.09,4.46-.18,6.29-.18,3.4-1.03,5.79-2.57,7.24-1.51,1.45-3.72,2.19-6.47,2.19s-5-.71-6.27-1.86c-1.45-1.33-2.16-3.69-2.16-7.07l.15-5.38-.06-2.63Z"/>
  <path class="cls-2" d="m209.5,12.24c1.18,1.33,1.54,1.63,1.77,1.63.18,0,.27-.15.33-.38.03-.27.15-5.11.15-6.74,0-4.37-.68-5.53-3.37-5.76-.35-.03-.47-.12-.47-.33,0-.27.12-.38.41-.38.44,0,.65.03,1.69.15.44.06.92.09,1.21.09.65,0,1.83-.09,3.19-.27.18-.03.35-.03.47-.03.27,0,.41.12.41.38,0,.3-.12.38-.47.47-1.36.3-1.95,1.54-1.86,3.99l-.21,9.02c-.06,1.71-.06,1.74-.06,2.25,0,1.3.03,2.75.06,3.28v.21c0,.27-.09.38-.3.38-.15,0-.38-.15-.53-.32l-13.15-14.57c-.32-.35-.35-.38-.47-.38-.27,0-.35.27-.35,1.09v5.59c.06,6.77.33,7.42,3.25,7.83.33.03.44.15.44.38,0,.27-.15.41-.41.41-.09,0-.35-.03-.59-.06-.74-.12-1.95-.21-2.66-.21s-2.01.09-2.63.21c-.3.06-.62.09-.74.09-.27,0-.38-.12-.38-.35,0-.21.09-.3.41-.38,1.89-.8,1.98-1.09,2.13-7.39v-6.27c.06-2.81-1.18-4.58-3.28-4.67-.33-.03-.44-.12-.44-.35,0-.27.15-.41.44-.41l.98.03c1.18,0,2.13-.03,3.07-.12.3-.03.59-.06.83-.06.53,0,.65.09,1.48,1.03q.15.18,1.09,1.3c.62.71.83.98.91,1.06l7.66,8.57Z"/>
  <path class="cls-2" d="m224.43,15.04c-.03,3.16.59,4.14,2.75,4.29.53,0,.68.09.68.41,0,.35-.21.44-.92.44-.29,0-.68-.03-1.18-.09-1.57-.15-2.01-.18-3.1-.18-.92,0-1.63.06-2.19.15-.44.09-.86.15-1.03.15-.3,0-.44-.18-.44-.44,0-.18.09-.24.41-.3.59-.09,1.3-.68,1.51-1.27.18-.62.18-.71.21-2.75V4.58c.06-2.3-.35-2.93-2.16-3.25-.98-.15-1.15-.24-1.15-.59,0-.24.12-.38.33-.38.15,0,.41.06.8.12.35.09.98.12,1.77.12.68,0,1.33-.03,3.04-.21.98-.09,1.63-.12,2.31-.12.35,0,.44.09.44.35,0,.35-.06.41-.41.47-1.54.3-1.68.53-1.65,2.75v11.2Z"/>
  <path class="cls-2" d="m240.69,15.37c.18.41.27.53.38.53.15,0,.21-.09.35-.41l3.25-7.21c.98-2.13,1.6-4.14,1.6-5.05,0-.62-.33-1.3-.8-1.68-.35-.3-.83-.47-1.63-.56-.35-.06-.5-.18-.5-.42s.12-.32.35-.32q.18,0,2.33.12c.68.03,1.18.06,1.48.06.65,0,1.36-.06,2.25-.18.47-.06.5-.06.59-.06.15,0,.27.15.27.35,0,.27-.12.35-.44.41-1.39.33-1.42.35-5.02,8.75l-3.75,8.3c-.5,1-.83,1.66-.89,1.83-.21.47-.38.65-.68.65q-.27,0-.77-1.09l-.35-.86-3.43-7.77c-.33-.74-.65-1.48-.98-2.25-.27-.62-.68-1.65-1.12-2.87-1.24-3.43-1.71-4.11-3.16-4.55-.47-.12-.59-.24-.59-.5s.12-.39.41-.39l.41.03c.3.03,3.43.15,3.9.15.77,0,.92,0,1.77-.06.5-.03,1.09-.06,1.3-.06.24,0,.35.12.35.41,0,.24-.15.33-.62.41-.68.15-1.06.56-1.06,1.24,0,.98.35,2.13,1.6,5.14l3.19,7.89Z"/>
  <path class="cls-2" d="m258.9,6.83c0,1.83.15,2.07,1.12,2.07l1.09-.03h1.21c1.15-.03,1.8-.59,2.57-2.28.09-.24.21-.3.41-.3s.33.12.33.35c0,.12-.03.38-.06.68-.03.24-.03.44-.03.68q0,.3.15,2.13c.06.77.09,1.86.09,2.69,0,.27-.09.35-.3.35-.27,0-.39-.15-.44-.53-.53-2.25-.98-2.48-4.49-2.42-.98,0-1.3.09-1.45.5-.12.41-.15.68-.21,2.84v1.3c0,1.12.15,2.45.33,2.93.33.89.68,1.12,1.6,1.12,2.72,0,4.67-.53,6.15-1.71.65-.5,1.27-1.24,1.51-1.86.06-.12.12-.18.18-.18.24,0,.38.18.38.38,0,.97-.47,2.45-1.03,3.19-.89,1.21-1.95,1.66-3.84,1.66-.86,0-1.03,0-3.72-.27-.62-.06-1.39-.09-2.37-.09-1.03,0-1.12,0-3.31.12l-.86.03c-.27,0-.38-.09-.38-.33,0-.18.09-.3.33-.38,1.3-.35,1.74-1.33,1.74-3.99V4.05c0-2.19-.5-2.72-2.72-3.02-.3-.03-.38-.12-.38-.41,0-.21.15-.33.44-.33l.47.03.71.03c2.45.06,3.87.09,7.39.09,1.36,0,4.64-.06,5.35-.12h.24c.3,0,.38.12.38.47.03.3.06.71.09,1.18.12,1.3.12,1.45.12,1.8,0,.68-.24,1.12-.56,1.12-.21,0-.27-.12-.3-.65,0-1.89-1.42-2.75-4.52-2.69h-1.36c-1.86,0-2.04.21-2.04,2.16v3.1Z"/>
  <path class="cls-2" d="m278.18,7.77q.03,1.15.15,1.42c.18.33.42.42,1.12.42,3.55,0,3.72-.03,4.43-.68.74-.65,1.06-1.45,1.06-2.54,0-2.99-2.1-5.08-5.02-5.08-1.36,0-1.74.44-1.74,1.89v4.58Zm0,6.71c0,3.69.44,4.55,2.51,4.85.44.03.59.15.59.47,0,.3-.12.38-.47.38l-.62-.03c-.92-.09-1.68-.12-2.39-.12-1,0-1.54.03-2.93.18-.8.09-1.33.12-1.57.12-.35,0-.47-.09-.47-.41,0-.27.03-.3.3-.38,1.54-.44,1.77-.95,1.74-3.72V4.79c.09-2.28-.56-3.1-2.75-3.49-.44-.06-.59-.18-.59-.5,0-.27.12-.38.35-.38.12,0,.35,0,.56.03.65.06,1.65.12,2.33.12.86,0,2.57-.06,3.64-.15,1.51-.12,2.78-.18,3.37-.18,3.67,0,6.36,2.22,6.36,5.26,0,1.92-1.06,3.46-3.01,4.35-.18.09-.27.18-.27.3,0,.09.06.21.15.35.03.06.21.35.38.68.41.71.98,1.71,1.27,2.28l1.51,2.63c1.01,1.77,1.69,2.39,2.75,2.39.18,0,.41-.03.62-.06.15-.03.27-.06.33-.06.15,0,.27.15.27.33,0,.56-2.04,1.51-3.25,1.51-1.09,0-2.07-.56-2.95-1.63-.65-.83-1.95-3.13-3.05-5.35-.83-1.66-1.06-1.98-1.65-2.25-.41-.18-.8-.21-2.22-.21-.8,0-.83.06-.83,1.18v2.54Z"/>
  <path class="cls-2" d="m306.2,2.31c0,.47,0,.53.21,2.04.09.59.18,1.42.18,1.68,0,.33-.12.53-.33.53s-.33-.18-.41-.53c-.62-2.78-3.16-4.99-5.7-4.99-1.71,0-3.22,1.39-3.22,2.96,0,.77.41,1.63,1.06,2.1.5.38.95.59,3.22,1.51,2.31.95,3.4,1.57,4.23,2.42,1,1.03,1.63,2.6,1.63,4.23s-.62,3.16-1.8,4.34c-1.12,1.15-2.78,1.89-4.2,1.89-.71,0-1.86-.24-3.25-.68-1-.33-1.03-.33-1.48-.41-.59-.15-.65-.15-.77-.24-.12-.12-.15-.21-.21-.77-.03-.35-.24-1.27-.41-1.98-.56-1.92-.56-1.95-.56-2.48,0-.47.15-.71.44-.71.15,0,.24.09.3.35.95,3.28,3.58,5.85,6.03,5.85,2.01,0,3.81-1.74,3.81-3.69,0-.95-.44-1.89-1.12-2.42q-.53-.38-3.75-1.8c-2.42-1.09-3.25-1.63-4.11-2.54-.83-.89-1.21-2.01-1.21-3.46,0-3.1,2.37-5.5,5.47-5.5,1.12,0,1.63.12,3.58.92.47.18.74.27.92.27q.21,0,.98-.35c.06-.03.15-.06.24-.06.24,0,.3.12.3.53l-.03,1Z"/>
  <path class="cls-2" d="m316.84,15.04c-.03,3.16.59,4.14,2.75,4.29.53,0,.68.09.68.41,0,.35-.21.44-.92.44-.29,0-.68-.03-1.18-.09-1.57-.15-2.01-.18-3.1-.18-.92,0-1.63.06-2.19.15-.44.09-.86.15-1.03.15-.3,0-.44-.18-.44-.44,0-.18.09-.24.41-.3.59-.09,1.3-.68,1.51-1.27.18-.62.18-.71.21-2.75V4.58c.06-2.3-.35-2.93-2.16-3.25-.98-.15-1.15-.24-1.15-.59,0-.24.12-.38.33-.38.15,0,.41.06.8.12.35.09.98.12,1.77.12.68,0,1.33-.03,3.04-.21.98-.09,1.63-.12,2.31-.12.35,0,.44.09.44.35,0,.35-.06.41-.41.47-1.54.3-1.68.53-1.65,2.75v11.2Z"/>
  <path class="cls-2" d="m333.49,14.75c.06,2.19.15,2.63.68,3.37.53.77,1.36,1.15,2.51,1.21.41,0,.53.12.53.44,0,.29-.09.38-.44.38q-.09,0-1.45-.06-1.95-.15-2.39-.15c-.74,0-.92,0-2.69.12l-1.98.12c-.33.03-.59.06-.77.06-.24,0-.35-.12-.35-.35,0-.41.15-.53.71-.56,1.8-.27,2.45-1.24,2.34-3.49V3.31c0-1.24-.21-1.45-1.45-1.45-2.01,0-3.34.21-4.05.59-.74.41-.92.71-1.36,2.51-.21.83-.33,1-.62,1-.27,0-.44-.18-.44-.44q0-.09.09-.74.06-.38.21-1.66c.06-.41.12-.86.15-1.27.06-.33.09-.62.12-.89.03-.44.15-.56.56-.56.06,0,.33,0,.53.03.27.03.89.03,1.6.06l2.95.03q2.84.03,3.55.03c1.65,0,5.56-.09,7.12-.18l1.03-.03q.74,0,.86,1.68c.06.68.12,1.06.12,1.18.06.38.12,1.06.12,1.24,0,.3-.12.44-.38.44s-.36-.12-.47-.53c-.15-.77-.71-1.6-1.24-2.01-.53-.35-1.15-.5-2.45-.5-2.84,0-3.22.24-3.22,2.01v10.88Z"/>
  <path class="cls-2" d="m353.86,16.08c-.06,2.51.38,2.98,2.96,3.28.35.03.47.12.47.44s-.15.38-.74.38q-.3,0-2.72-.21c-.38-.03-.95-.06-1.83-.06-1.51,0-2.72.06-3.43.15-.59.09-.8.12-.92.12-.21,0-.3-.09-.3-.38s.06-.35.38-.41c2.25-.41,2.75-1.09,2.78-3.75v-2.75c-.03-.86-.12-1.15-.62-2.01-.5-.8-1.06-1.8-1.68-2.96-.74-1.39-1.45-2.78-2.19-4.14-.98-1.8-1.74-2.45-3.07-2.66-.41-.06-.53-.15-.53-.38,0-.33.15-.47.42-.47.18,0,.59.03,2.33.21.41.03.98.06,1.57.06.77,0,1.54-.03,2.43-.12.74-.06,1-.09,1.21-.09.41,0,.59.12.59.35,0,.21-.12.33-.47.41-.74.15-1.12.5-1.12.98,0,.5.21,1,1.06,2.63.27.53,1.27,2.48,1.98,3.87.35.71.62,1,.92,1,.33,0,.65-.38,1.24-1.48.59-1.12.92-1.71.95-1.74,1.24-2.28,1.6-3.04,1.6-3.55,0-.86-1.06-1.68-2.33-1.8-.33-.03-.44-.12-.44-.33,0-.35.12-.47.47-.47q.3,0,1.6.18c.39.06.8.09,1.42.09q.5,0,2.28-.12c.15-.03.47-.03.98-.03h.18c.24,0,.38.12.38.33,0,.24-.15.33-.53.41-1.68.59-2.13,1.06-3.43,3.66-1.01,1.92-2.54,4.61-3.4,5.94q-.41.68-.41,1.68v3.72Z"/>
  <path class="cls-2" d="m376.92,9.1c0,6.15,2.98,10.32,7.39,10.32,1.86,0,3.69-.89,4.7-2.25,1.09-1.48,1.8-3.93,1.8-6.32,0-2.81-.98-5.59-2.57-7.45-1.24-1.42-3.22-2.31-5.14-2.31-3.84,0-6.18,3.01-6.18,8.01m17.26.38c0,3.28-1.33,6.53-3.52,8.54-1.71,1.57-4.23,2.45-7,2.45-6.27,0-10.29-3.93-10.29-10.05,0-2.93,1.27-5.97,3.19-7.71C378.48.98,381.23,0,384.13,0c6,0,10.05,3.81,10.05,9.49"/>
  <path class="cls-2" d="m403.94,7.6c0,1.06.21,1.36,1.03,1.36h.53c3.02.03,3.52-.24,4.29-2.31.09-.27.18-.33.36-.33.33,0,.38.06.38.38,0,0,0,.18-.03.35v.56c0,.71.03,1.27.24,3.66.03.56.09,1.48.09,1.57,0,.21-.12.3-.35.3s-.33-.09-.38-.38c-.35-1.98-1.09-2.54-3.31-2.54-1.54,0-2.19.06-2.48.24q-.33.21-.35,2.57v2.39c.09,2.96.77,3.87,2.93,3.99.35.03.47.15.47.38,0,.27-.09.38-.3.38l-2.96-.12h-1.6c-.74,0-1.36.03-1.83.09-.62.09-1.21.15-1.42.15-.33,0-.47-.12-.47-.38,0-.24.03-.27.41-.38,1.12-.38,1.51-1.3,1.45-3.43V4.23c.03-2.19-.44-2.75-2.72-3.07-.3-.03-.38-.12-.38-.38,0-.3.12-.38.5-.38.09,0,.44.03.74.06.65.06.98.06,1.66.06l2.63-.03,3.78-.03c.83,0,3.93-.15,5.02-.21h.09q.33,0,.47,1.8.18,1.42.18,1.66c0,.8-.18,1.18-.53,1.18-.21,0-.27-.12-.3-.38-.06-1.03-.09-1.15-.35-1.57-.65-.95-1.51-1.27-3.25-1.33l-2.25-.03c-1,0-1.45.09-1.71.38-.24.24-.27.35-.27,1.51v4.14Z"/>
  <path class="cls-2" d="m435.36,14.75c.06,2.19.15,2.63.68,3.37.53.77,1.36,1.15,2.51,1.21.41,0,.53.12.53.44,0,.29-.09.38-.44.38q-.09,0-1.45-.06-1.95-.15-2.4-.15c-.74,0-.91,0-2.69.12l-1.98.12c-.33.03-.59.06-.77.06-.24,0-.35-.12-.35-.35,0-.41.15-.53.71-.56,1.8-.27,2.45-1.24,2.34-3.49V3.31c0-1.24-.21-1.45-1.45-1.45-2.01,0-3.34.21-4.05.59-.74.41-.92.71-1.36,2.51-.21.83-.33,1-.62,1-.27,0-.44-.18-.44-.44q0-.09.09-.74.06-.38.21-1.66c.06-.41.12-.86.15-1.27.06-.33.09-.62.12-.89.03-.44.15-.56.56-.56.06,0,.33,0,.53.03.27.03.89.03,1.6.06l2.96.03q2.84.03,3.55.03c1.65,0,5.56-.09,7.12-.18l1.03-.03q.74,0,.86,1.68c.06.68.12,1.06.12,1.18.06.38.12,1.06.12,1.24,0,.3-.12.44-.38.44s-.35-.12-.47-.53c-.15-.77-.71-1.6-1.24-2.01-.53-.35-1.15-.5-2.45-.5-2.84,0-3.22.24-3.22,2.01v10.88Z"/>
  <path class="cls-2" d="m451.85,6.83c0,1.83.15,2.07,1.12,2.07l1.1-.03h1.21c1.15-.03,1.8-.59,2.57-2.28.09-.24.21-.3.41-.3s.33.12.33.35c0,.12-.03.38-.06.68-.03.24-.03.44-.03.68q0,.3.15,2.13c.06.77.09,1.86.09,2.69,0,.27-.09.35-.3.35-.27,0-.38-.15-.44-.53-.53-2.25-.98-2.48-4.49-2.42-.98,0-1.3.09-1.45.5-.12.41-.15.68-.21,2.84v1.3c0,1.12.15,2.45.33,2.93.33.89.68,1.12,1.6,1.12,2.72,0,4.67-.53,6.15-1.71.65-.5,1.27-1.24,1.51-1.86.06-.12.12-.18.18-.18.24,0,.38.18.38.38,0,.97-.47,2.45-1.03,3.19-.89,1.21-1.95,1.66-3.84,1.66-.86,0-1.03,0-3.72-.27-.62-.06-1.39-.09-2.37-.09-1.03,0-1.12,0-3.31.12l-.86.03c-.27,0-.38-.09-.38-.33,0-.18.09-.3.33-.38,1.3-.35,1.74-1.33,1.74-3.99V4.05c0-2.19-.5-2.72-2.72-3.02-.3-.03-.38-.12-.38-.41,0-.21.15-.33.44-.33l.47.03.71.03c2.45.06,3.87.09,7.39.09,1.36,0,4.64-.06,5.35-.12h.24c.3,0,.38.12.38.47.03.3.06.71.09,1.18.12,1.3.12,1.45.12,1.8,0,.68-.24,1.12-.56,1.12-.21,0-.27-.12-.3-.65,0-1.89-1.42-2.75-4.52-2.69h-1.36c-1.86,0-2.04.21-2.04,2.16v3.1Z"/>
  <path class="cls-2" d="m480.5,12.24c1.18,1.33,1.54,1.63,1.77,1.63.18,0,.27-.15.33-.38.03-.27.15-5.11.15-6.74,0-4.37-.68-5.53-3.37-5.76-.35-.03-.47-.12-.47-.33,0-.27.12-.38.41-.38.44,0,.65.03,1.69.15.44.06.92.09,1.21.09.65,0,1.83-.09,3.19-.27.18-.03.35-.03.47-.03.27,0,.41.12.41.38,0,.3-.12.38-.47.47-1.36.3-1.95,1.54-1.86,3.99l-.21,9.02c-.06,1.71-.06,1.74-.06,2.25,0,1.3.03,2.75.06,3.28v.21c0,.27-.09.38-.3.38-.15,0-.38-.15-.53-.32l-13.15-14.57c-.32-.35-.35-.38-.47-.38-.27,0-.35.27-.35,1.09v5.59c.06,6.77.33,7.42,3.25,7.83.33.03.44.15.44.38,0,.27-.15.41-.41.41-.09,0-.35-.03-.59-.06-.74-.12-1.95-.21-2.66-.21s-2.01.09-2.63.21c-.3.06-.62.09-.74.09-.27,0-.38-.12-.38-.35,0-.21.09-.3.41-.38,1.89-.8,1.98-1.09,2.13-7.39v-6.27c.06-2.81-1.18-4.58-3.28-4.67-.33-.03-.44-.12-.44-.35,0-.27.15-.41.44-.41l.98.03c1.18,0,2.13-.03,3.07-.12.3-.03.59-.06.83-.06.53,0,.65.09,1.48,1.03q.15.18,1.09,1.3c.62.71.83.98.91,1.06l7.66,8.57Z"/>
  <path class="cls-2" d="m504.8,12.24c1.18,1.33,1.54,1.63,1.77,1.63.18,0,.27-.15.33-.38.03-.27.15-5.11.15-6.74,0-4.37-.68-5.53-3.37-5.76-.35-.03-.47-.12-.47-.33,0-.27.12-.38.41-.38.44,0,.65.03,1.69.15.44.06.92.09,1.21.09.65,0,1.83-.09,3.19-.27.18-.03.35-.03.47-.03.27,0,.41.12.41.38,0,.3-.12.38-.47.47-1.36.3-1.95,1.54-1.86,3.99l-.21,9.02c-.06,1.71-.06,1.74-.06,2.25,0,1.3.03,2.75.06,3.28v.21c0,.27-.09.38-.3.38-.15,0-.38-.15-.53-.32l-13.15-14.57c-.32-.35-.35-.38-.47-.38-.27,0-.35.27-.35,1.09v5.59c.06,6.77.33,7.42,3.25,7.83.33.03.44.15.44.38,0,.27-.15.41-.41.41-.09,0-.35-.03-.59-.06-.74-.12-1.95-.21-2.66-.21s-2.01.09-2.63.21c-.3.06-.62.09-.74.09-.27,0-.38-.12-.38-.35,0-.21.09-.3.41-.38,1.89-.8,1.98-1.09,2.13-7.39v-6.27c.06-2.81-1.18-4.58-3.28-4.67-.33-.03-.44-.12-.44-.35,0-.27.15-.41.44-.41l.98.03c1.18,0,2.13-.03,3.07-.12.3-.03.59-.06.83-.06.53,0,.65.09,1.48,1.03q.15.18,1.09,1.3c.62.71.83.98.91,1.06l7.66,8.57Z"/>
  <path class="cls-2" d="m519.73,6.83c0,1.83.15,2.07,1.12,2.07l1.09-.03h1.21c1.15-.03,1.8-.59,2.57-2.28.09-.24.21-.3.41-.3s.33.12.33.35c0,.12-.03.38-.06.68-.03.24-.03.44-.03.68q0,.3.15,2.13c.06.77.09,1.86.09,2.69,0,.27-.09.35-.3.35-.27,0-.39-.15-.44-.53-.53-2.25-.98-2.48-4.49-2.42-.98,0-1.3.09-1.45.5-.12.41-.15.68-.21,2.84v1.3c0,1.12.15,2.45.33,2.93.33.89.68,1.12,1.6,1.12,2.72,0,4.67-.53,6.15-1.71.65-.5,1.27-1.24,1.51-1.86.06-.12.12-.18.18-.18.24,0,.38.18.38.38,0,.97-.47,2.45-1.03,3.19-.89,1.21-1.95,1.66-3.84,1.66-.86,0-1.03,0-3.72-.27-.62-.06-1.39-.09-2.36-.09-1.03,0-1.12,0-3.31.12l-.86.03c-.27,0-.38-.09-.38-.33,0-.18.09-.3.33-.38,1.3-.35,1.74-1.33,1.74-3.99V4.05c0-2.19-.5-2.72-2.72-3.02-.3-.03-.38-.12-.38-.41,0-.21.15-.33.44-.33l.47.03.71.03c2.45.06,3.87.09,7.39.09,1.36,0,4.64-.06,5.35-.12h.24c.3,0,.38.12.38.47.03.3.06.71.09,1.18.12,1.3.12,1.45.12,1.8,0,.68-.24,1.12-.56,1.12-.21,0-.27-.12-.3-.65,0-1.89-1.42-2.75-4.52-2.69h-1.36c-1.86,0-2.04.21-2.04,2.16v3.1Z"/>
  <path class="cls-2" d="m544.74,2.31c0,.47,0,.53.21,2.04.09.59.18,1.42.18,1.68,0,.33-.12.53-.33.53s-.33-.18-.41-.53c-.62-2.78-3.16-4.99-5.71-4.99-1.71,0-3.22,1.39-3.22,2.96,0,.77.41,1.63,1.06,2.1.5.38.95.59,3.22,1.51,2.31.95,3.4,1.57,4.23,2.42,1,1.03,1.63,2.6,1.63,4.23s-.62,3.16-1.8,4.34c-1.12,1.15-2.78,1.89-4.2,1.89-.71,0-1.86-.24-3.25-.68-1-.33-1.03-.33-1.48-.41-.59-.15-.65-.15-.77-.24-.12-.12-.15-.21-.21-.77-.03-.35-.24-1.27-.41-1.98-.56-1.92-.56-1.95-.56-2.48,0-.47.15-.71.44-.71.15,0,.24.09.3.35.95,3.28,3.58,5.85,6.03,5.85,2.01,0,3.81-1.74,3.81-3.69,0-.95-.44-1.89-1.12-2.42q-.53-.38-3.75-1.8c-2.43-1.09-3.25-1.63-4.11-2.54-.83-.89-1.21-2.01-1.21-3.46,0-3.1,2.36-5.5,5.47-5.5,1.12,0,1.63.12,3.58.92.47.18.74.27.92.27q.21,0,.98-.35c.06-.03.15-.06.24-.06.24,0,.3.12.3.53l-.03,1Z"/>
  <path class="cls-2" d="m561.11,2.31c0,.47,0,.53.21,2.04.09.59.18,1.42.18,1.68,0,.33-.12.53-.33.53s-.33-.18-.41-.53c-.62-2.78-3.16-4.99-5.71-4.99-1.71,0-3.22,1.39-3.22,2.96,0,.77.41,1.63,1.06,2.1.5.38.95.59,3.22,1.51,2.31.95,3.4,1.57,4.23,2.42,1,1.03,1.63,2.6,1.63,4.23s-.62,3.16-1.8,4.34c-1.12,1.15-2.78,1.89-4.2,1.89-.71,0-1.86-.24-3.25-.68-1-.33-1.03-.33-1.48-.41-.59-.15-.65-.15-.77-.24-.12-.12-.15-.21-.21-.77-.03-.35-.24-1.27-.41-1.98-.56-1.92-.56-1.95-.56-2.48,0-.47.15-.71.44-.71.15,0,.24.09.3.35.95,3.28,3.58,5.85,6.03,5.85,2.01,0,3.81-1.74,3.81-3.69,0-.95-.44-1.89-1.12-2.42q-.53-.38-3.75-1.8c-2.43-1.09-3.25-1.63-4.11-2.54-.83-.89-1.21-2.01-1.21-3.46,0-3.1,2.36-5.5,5.47-5.5,1.12,0,1.63.12,3.58.92.47.18.74.27.92.27q.21,0,.98-.35c.06-.03.15-.06.24-.06.24,0,.3.12.3.53l-.03,1Z"/>
  <path class="cls-2" d="m571.76,6.83c0,1.83.15,2.07,1.12,2.07l1.09-.03h1.21c1.15-.03,1.8-.59,2.57-2.28.09-.24.2-.3.41-.3s.33.12.33.35c0,.12-.03.38-.06.68-.03.24-.03.44-.03.68q0,.3.15,2.13c.06.77.09,1.86.09,2.69,0,.27-.09.35-.3.35-.27,0-.39-.15-.44-.53-.53-2.25-.98-2.48-4.49-2.42-.98,0-1.3.09-1.45.5-.12.41-.15.68-.21,2.84v1.3c0,1.12.15,2.45.33,2.93.33.89.68,1.12,1.6,1.12,2.72,0,4.67-.53,6.15-1.71.65-.5,1.27-1.24,1.51-1.86.06-.12.12-.18.18-.18.24,0,.38.18.38.38,0,.97-.47,2.45-1.03,3.19-.89,1.21-1.95,1.66-3.84,1.66-.86,0-1.03,0-3.72-.27-.62-.06-1.39-.09-2.36-.09-1.03,0-1.12,0-3.31.12l-.86.03c-.27,0-.39-.09-.39-.33,0-.18.09-.3.33-.38,1.3-.35,1.74-1.33,1.74-3.99V4.05c0-2.19-.5-2.72-2.72-3.02-.3-.03-.38-.12-.38-.41,0-.21.15-.33.44-.33l.47.03.71.03c2.45.06,3.87.09,7.39.09,1.36,0,4.64-.06,5.35-.12h.24c.3,0,.38.12.38.47.03.3.06.71.09,1.18.12,1.3.12,1.45.12,1.8,0,.68-.24,1.12-.56,1.12-.21,0-.27-.12-.3-.65,0-1.89-1.42-2.75-4.52-2.69h-1.36c-1.86,0-2.04.21-2.04,2.16v3.1Z"/>
  <path class="cls-2" d="m591.03,6.83c0,1.83.15,2.07,1.12,2.07l1.09-.03h1.21c1.15-.03,1.8-.59,2.57-2.28.09-.24.21-.3.41-.3s.33.12.33.35c0,.12-.03.38-.06.68-.03.24-.03.44-.03.68q0,.3.15,2.13c.06.77.09,1.86.09,2.69,0,.27-.09.35-.3.35-.27,0-.39-.15-.44-.53-.53-2.25-.98-2.48-4.49-2.42-.98,0-1.3.09-1.45.5-.12.41-.15.68-.21,2.84v1.3c0,1.12.15,2.45.33,2.93.33.89.68,1.12,1.6,1.12,2.72,0,4.67-.53,6.15-1.71.65-.5,1.27-1.24,1.51-1.86.06-.12.12-.18.18-.18.24,0,.38.18.38.38,0,.97-.47,2.45-1.03,3.19-.89,1.21-1.95,1.66-3.84,1.66-.86,0-1.03,0-3.72-.27-.62-.06-1.39-.09-2.36-.09-1.03,0-1.12,0-3.31.12l-.86.03c-.27,0-.39-.09-.39-.33,0-.18.09-.3.33-.38,1.3-.35,1.74-1.33,1.74-3.99V4.05c0-2.19-.5-2.72-2.72-3.02-.3-.03-.38-.12-.38-.41,0-.21.15-.33.44-.33l.47.03.71.03c2.45.06,3.87.09,7.39.09,1.36,0,4.64-.06,5.35-.12h.24c.3,0,.38.12.38.47.03.3.06.71.09,1.18.12,1.3.12,1.45.12,1.8,0,.68-.24,1.12-.56,1.12-.21,0-.27-.12-.3-.65,0-1.89-1.42-2.75-4.52-2.69h-1.36c-1.86,0-2.04.21-2.04,2.16v3.1Z"/>
  <path class="cls-2" d="m132.01,37.86c.06,1.24.06,1.43.52,3.84.13.59.2,1.37.2,1.82,0,.85-.33,1.24-.91,1.24-.39,0-.52-.2-.65-.78-.39-1.95-3.25-6.44-5.53-8.59-3.58-3.45-7.29-5.07-11.45-5.07-3.51,0-6.11,1.17-8.65,3.9-3.25,3.45-4.75,7.87-4.75,13.66,0,6.18,1.82,11.71,5.2,15.68,2.93,3.45,7.16,5.59,11.06,5.59,3.38,0,7.35-1.43,10.47-3.77q1.3-.91,3.9-3.84c.33-.33.65-.52.85-.52.33,0,.65.32.65.65,0,.91-1.43,3.06-3.19,4.88-4.16,4.29-9.76,6.7-15.68,6.7-12.42,0-20.88-8.78-20.88-21.66,0-6.05,2.67-12.82,6.7-17.04,3.9-4.03,9.63-6.37,15.55-6.37,4.62,0,7.02.78,12.23,3.77.39.26.85.39,1.17.39.59,0,.65,0,1.56-1.49.13-.13.33-.26.59-.26.91,0,.98.19,1.04,4.36v2.93Z"/>
  <path class="cls-2" d="m153.28,50.81c-2.86-.06-3.38.52-3.32,3.64v7.94c-.13,5.72,1.76,8.33,6.18,8.46.85,0,1.17.19,1.17.84,0,.72-.39.98-1.63.98-.33,0-1.04-.07-2.28-.2-2.15-.26-5.33-.45-6.7-.45-1.24,0-2.8.13-7.55.58h-.39c-.59,0-.98-.39-.98-1.11,0-.45.2-.65.78-.71,1.82-.26,3.38-1.76,3.84-3.64.2-.71.2-.98.26-4.94v-25.24c.13-4.1-1.3-5.72-5.92-6.44-.71-.13-.91-.26-.91-.78,0-.72.33-1.04,1.04-1.04.33,0,1.24.06,2.08.2,1.43.26,4.16.39,6.37.39q.59,0,4.68-.39c1.11-.13,3.12-.26,3.58-.26.65,0,1.04.33,1.04.85s-.26.78-.91.91c-2.67.33-3.84,1.82-3.77,4.75v8.13c-.13,4.1.13,4.36,3.51,4.36h14.83c2.54,0,2.86-.72,2.8-5.07v-5.59c.19-4.1-1.37-5.79-5.92-6.37-.71-.13-.91-.33-.91-.85,0-.72.33-1.04,1.04-1.04.32,0,1.24.06,2.08.2,1.63.26,4.1.39,6.7.39.33,0,2.02-.13,4.36-.39,1.24-.13,2.93-.26,3.51-.26.78,0,1.11.26,1.11.91,0,.46-.26.71-.91.85-2.67.33-3.84,1.82-3.77,4.75v27.26c-.2,5.66,1.76,8.39,6.11,8.46.91,0,1.24.19,1.24.84,0,.72-.39.98-1.63.98-.32,0-1.04-.07-2.28-.2-2.08-.26-5.33-.45-6.7-.45-1.24,0-2.8.13-7.55.58h-.39c-.59,0-.98-.39-.98-1.11,0-.45.2-.65.78-.71,1.82-.26,3.38-1.76,3.84-3.64.19-.71.19-.98.26-4.94v-6.96c0-4.03-.26-4.49-2.8-4.42h-15.03Z"/>
  <path class="cls-2" d="m210.06,42.74c-.91-2.15-1.75-3.51-2.15-3.51q-.33,0-2.02,3.58l-3.71,8.46q-.59,1.3-.59,1.69c0,.78.59,1.04,2.34,1.04h8.65c1.63,0,1.89-.13,1.89-.65,0-.13,0-.26-.26-.91l-4.16-9.69Zm17.37,23.03c2.02,3.97,2.67,4.49,6.31,5.4.46.06.59.26.59.91,0,.52-.26.78-.72.78-.13,0-.45-.07-1.24-.2-1.3-.26-5.53-.52-7.87-.52-2.86,0-6.31.2-7.42.46-.33.06-.59.13-.78.13-.46,0-.91-.45-.91-.91,0-.33.2-.46.71-.65,2.02-.59,3.51-2.28,3.51-3.97,0-1.24-1.24-4.68-3.06-8.39-.72-1.56-1.43-1.82-5.27-1.82h-8c-2.99,0-3.77.52-5.07,3.64-1.56,3.64-1.89,4.62-1.89,5.66,0,2.6,1.89,4.16,5.59,4.62.85.13,1.17.39,1.17.85,0,.52-.46.91-1.04.91-.46,0-1.04-.06-1.69-.2-1.43-.33-2.6-.45-3.71-.45s-2.28.06-6.57.52l-1.5.07c-.52,0-.78-.26-.78-.78,0-.46.2-.72.91-.91,2.34-.85,2.99-1.69,5.79-8.07l8.65-20.04c.72-1.56,1.24-2.73,1.5-3.25l2.93-6.11q2.6-5.27,2.86-5.27c.45,0,1.3,1.56,2.54,4.36l14.44,33.24Z"/>
  <path class="cls-2" d="m255.52,60.63c.13,4.81.33,5.79,1.5,7.41,1.17,1.69,2.99,2.54,5.53,2.67.91,0,1.17.26,1.17.98,0,.65-.2.85-.98.85q-.2,0-3.19-.13-4.29-.33-5.27-.33c-1.63,0-2.02,0-5.92.26l-4.36.26c-.71.07-1.3.13-1.69.13-.52,0-.78-.26-.78-.78,0-.91.33-1.17,1.56-1.24,3.97-.59,5.4-2.73,5.14-7.68v-27.58c0-2.73-.46-3.19-3.19-3.19-4.42,0-7.35.46-8.91,1.3-1.63.91-2.02,1.56-2.99,5.53-.46,1.82-.72,2.21-1.37,2.21-.58,0-.98-.39-.98-.98q0-.19.2-1.63.13-.85.46-3.64c.13-.91.26-1.89.32-2.8.13-.71.2-1.37.26-1.95.06-.98.33-1.24,1.24-1.24.13,0,.72,0,1.17.06.59.07,1.95.07,3.51.13l6.5.06q6.25.07,7.81.07c3.64,0,12.23-.2,15.68-.39l2.28-.06q1.63,0,1.89,3.71c.13,1.5.26,2.34.26,2.6.13.85.26,2.34.26,2.73,0,.65-.26.98-.85.98s-.78-.26-1.04-1.17c-.33-1.69-1.56-3.51-2.73-4.42-1.17-.78-2.54-1.11-5.4-1.11-6.25,0-7.09.52-7.09,4.42v23.94Z"/>
  <path class="cls-2" d="m302.55,60.63c.13,4.81.33,5.79,1.5,7.41,1.17,1.69,2.99,2.54,5.53,2.67.91,0,1.17.26,1.17.98,0,.65-.2.85-.98.85q-.2,0-3.19-.13-4.29-.33-5.27-.33c-1.63,0-2.02,0-5.92.26l-4.36.26c-.72.07-1.3.13-1.69.13-.52,0-.78-.26-.78-.78,0-.91.33-1.17,1.56-1.24,3.97-.59,5.4-2.73,5.14-7.68v-27.58c0-2.73-.46-3.19-3.19-3.19-4.42,0-7.35.46-8.91,1.3-1.63.91-2.02,1.56-2.99,5.53-.46,1.82-.72,2.21-1.37,2.21-.59,0-.98-.39-.98-.98q0-.19.2-1.63.13-.85.46-3.64c.13-.91.26-1.89.33-2.8.13-.71.19-1.37.26-1.95.06-.98.33-1.24,1.24-1.24.13,0,.72,0,1.17.06.59.07,1.95.07,3.51.13l6.51.06q6.24.07,7.81.07c3.64,0,12.23-.2,15.68-.39l2.28-.06q1.63,0,1.89,3.71c.13,1.5.26,2.34.26,2.6.13.85.26,2.34.26,2.73,0,.65-.26.98-.85.98s-.78-.26-1.04-1.17c-.33-1.69-1.56-3.51-2.73-4.42-1.17-.78-2.54-1.11-5.4-1.11-6.25,0-7.09.52-7.09,4.42v23.94Z"/>
  <path class="cls-2" d="m339.3,42.74c-.91-2.15-1.75-3.51-2.15-3.51q-.33,0-2.02,3.58l-3.71,8.46q-.59,1.3-.59,1.69c0,.78.59,1.04,2.34,1.04h8.65c1.63,0,1.89-.13,1.89-.65,0-.13,0-.26-.26-.91l-4.16-9.69Zm17.37,23.03c2.02,3.97,2.67,4.49,6.31,5.4.46.06.59.26.59.91,0,.52-.26.78-.72.78-.13,0-.45-.07-1.24-.2-1.3-.26-5.53-.52-7.87-.52-2.86,0-6.31.2-7.42.46-.33.06-.59.13-.78.13-.46,0-.91-.45-.91-.91,0-.33.2-.46.71-.65,2.02-.59,3.51-2.28,3.51-3.97,0-1.24-1.24-4.68-3.06-8.39-.72-1.56-1.43-1.82-5.27-1.82h-8c-2.99,0-3.77.52-5.07,3.64-1.56,3.64-1.89,4.62-1.89,5.66,0,2.6,1.89,4.16,5.59,4.62.85.13,1.17.39,1.17.85,0,.52-.46.91-1.04.91-.46,0-1.04-.06-1.69-.2-1.43-.33-2.6-.45-3.71-.45s-2.28.06-6.57.52l-1.5.07c-.52,0-.78-.26-.78-.78,0-.46.2-.72.91-.91,2.34-.85,2.99-1.69,5.79-8.07l8.65-20.04c.72-1.56,1.24-2.73,1.5-3.25l2.93-6.11q2.6-5.27,2.86-5.27c.45,0,1.3,1.56,2.54,4.36l14.44,33.24Z"/>
  <path class="cls-2" d="m399.72,55.1c2.6,2.93,3.38,3.58,3.9,3.58.39,0,.59-.33.71-.85.07-.59.33-11.25.33-14.83,0-9.63-1.5-12.16-7.42-12.68-.78-.07-1.04-.26-1.04-.71,0-.59.26-.85.91-.85.98,0,1.43.06,3.71.33.98.13,2.02.19,2.67.19,1.43,0,4.03-.19,7.03-.59.39-.06.78-.06,1.04-.06.59,0,.91.26.91.85,0,.65-.26.85-1.04,1.04-2.99.65-4.29,3.38-4.1,8.78l-.46,19.84c-.13,3.77-.13,3.84-.13,4.94,0,2.86.06,6.05.13,7.22v.46c0,.59-.2.85-.65.85-.33,0-.85-.33-1.17-.72l-28.95-32.07c-.71-.78-.78-.85-1.04-.85-.59,0-.78.59-.78,2.41v12.29c.13,14.9.71,16.33,7.16,17.24.71.06.98.33.98.85,0,.59-.33.91-.91.91-.2,0-.78-.06-1.3-.13-1.63-.26-4.29-.45-5.85-.45s-4.42.2-5.79.45c-.65.13-1.37.2-1.63.2-.59,0-.85-.26-.85-.78,0-.45.19-.65.91-.85,4.16-1.75,4.36-2.41,4.68-16.26v-13.79c.13-6.18-2.6-10.08-7.22-10.28-.72-.07-.98-.26-.98-.78,0-.59.33-.91.98-.91l2.15.06c2.6,0,4.68-.06,6.77-.26.65-.06,1.3-.13,1.82-.13,1.17,0,1.43.19,3.25,2.28q.33.39,2.41,2.86c1.37,1.56,1.82,2.15,2.02,2.34l16.85,18.86Z"/>
  <path class="cls-2" d="m421.77,48.21c0,13.53,6.57,22.7,16.26,22.7,4.1,0,8.13-1.95,10.34-4.94,2.41-3.25,3.97-8.65,3.97-13.92,0-6.18-2.15-12.29-5.66-16.39-2.73-3.12-7.09-5.07-11.32-5.07-8.46,0-13.59,6.63-13.59,17.63m37.99.85c0,7.22-2.93,14.38-7.74,18.8-3.77,3.45-9.3,5.4-15.42,5.4-13.79,0-22.64-8.65-22.64-22.12,0-6.44,2.8-13.14,7.02-16.98,4.23-3.84,10.28-5.99,16.65-5.99,13.2,0,22.12,8.39,22.12,20.88"/>
  <path class="cls-2" d="m472.11,48.21c0,13.53,6.57,22.7,16.26,22.7,4.1,0,8.13-1.95,10.34-4.94,2.41-3.25,3.97-8.65,3.97-13.92,0-6.18-2.15-12.29-5.66-16.39-2.73-3.12-7.09-5.07-11.32-5.07-8.46,0-13.59,6.63-13.59,17.63m37.99.85c0,7.22-2.93,14.38-7.74,18.8-3.77,3.45-9.3,5.4-15.42,5.4-13.79,0-22.64-8.65-22.64-22.12,0-6.44,2.8-13.14,7.02-16.98,4.23-3.84,10.28-5.99,16.65-5.99,13.2,0,22.12,8.39,22.12,20.88"/>
  <path class="cls-2" d="m553.93,38.45c0,1.43.06,2.73.26,4.49.07.2.07.45.07.59,0,.59-.33.91-.98.91-.45,0-.65-.33-.91-1.37-1.56-7.22-8.26-12.62-15.61-12.62-8.65,0-14.25,7.35-14.25,18.73,0,11.97,6.11,21.47,13.73,21.47,2.86,0,7.42-1.43,9.24-2.86,1.24-.91,1.76-2.99,1.76-6.96,0-5.01-1.56-6.7-6.5-6.96-.65,0-.98-.33-.98-.91,0-.52.39-.84,1.17-.84.2,0,.59,0,1.11.06,2.6.26,4.03.33,7.16.33,2.47,0,4.42-.06,5.85-.26.98-.13,1.82-.2,2.41-.2.65,0,1.11.33,1.11.85s-.33.78-1.11.98c-2.54.58-3.25,2.21-3.25,7.61,0,.65,0,1.3.07,1.82.06.98.13,1.82.13,2.28,0,1.24-.46,1.69-2.02,2.28-.39.13-2.28.91-5.01,2.15-5.27,2.21-9.37,3.25-13.14,3.25-5.4,0-10.41-2.02-13.99-5.72-3.77-3.84-5.59-8.85-5.59-15.35,0-13.47,9.63-24,21.92-24,3.84,0,7.22.85,12.36,3.12,1.37.59,1.95.78,2.34.78.46,0,.52-.06,1.11-.65.26-.2.52-.33.78-.33.72,0,.98.33.98,1.11v2.21l-.2,4.03Z"/>
  <path class="cls-2" d="m579.69,42.74c-.91-2.15-1.75-3.51-2.15-3.51q-.33,0-2.02,3.58l-3.71,8.46q-.59,1.3-.59,1.69c0,.78.59,1.04,2.34,1.04h8.65c1.63,0,1.89-.13,1.89-.65,0-.13,0-.26-.26-.91l-4.16-9.69Zm17.37,23.03c2.02,3.97,2.67,4.49,6.31,5.4.46.06.59.26.59.91,0,.52-.26.78-.72.78-.13,0-.45-.07-1.24-.2-1.3-.26-5.53-.52-7.87-.52-2.86,0-6.31.2-7.42.46-.33.06-.59.13-.78.13-.46,0-.91-.45-.91-.91,0-.33.2-.46.71-.65,2.02-.59,3.51-2.28,3.51-3.97,0-1.24-1.24-4.68-3.06-8.39-.72-1.56-1.43-1.82-5.27-1.82h-8c-2.99,0-3.77.52-5.07,3.64-1.56,3.64-1.89,4.62-1.89,5.66,0,2.6,1.89,4.16,5.59,4.62.85.13,1.17.39,1.17.85,0,.52-.46.91-1.04.91-.46,0-1.04-.06-1.69-.2-1.43-.33-2.6-.45-3.71-.45s-2.28.06-6.57.52l-1.5.07c-.52,0-.78-.26-.78-.78,0-.46.2-.72.91-.91,2.34-.85,2.99-1.69,5.79-8.07l8.65-20.04c.72-1.56,1.24-2.73,1.5-3.25l2.93-6.11q2.6-5.27,2.86-5.27c.45,0,1.3,1.56,2.54,4.36l14.44,33.24Z"/>
  <path class="cls-2" d="m75.39,32.18L82.7.35h-43.7c-8.32,0-14.4,1.04-19.14,3.28-6,2.84-9.98,7.84-11.5,14.47L.61,51.83c-1.3,5.67-.53,10.34,2.28,13.91,3.73,4.72,10.31,6.73,21.99,6.73h41.3l5.74-24.99h-33.88l3.54-15.3h33.81Z"/>
  <path class="cls-1" d="m33.39,51.2h33.88l-4.03,17.54H24.88c-10.43,0-16.14-1.59-19.09-5.32-2.11-2.66-2.62-6.17-1.57-10.74l7.74-33.72c1.28-5.56,4.47-9.58,9.48-11.95,4.23-2,9.81-2.93,17.57-2.93h39.03l-5.6,24.38h-26.21l1.57-6.83h-7.62l-6.79,29.57Z"/>
  <path class="cls-3" d="m75.15,6.66l-4.41,19.22h-20.95l1.57-6.83h-12.89l-7.97,34.73h33.88l-2.84,12.39H25.2c-13.62,0-20.51-2.61-18.15-12.89l7.74-33.72c2.3-10.03,11.06-12.9,24.56-12.9h35.8Z"/>
</svg>